<?xml version="1.0" encoding="UTF-8" standalone="no"?>
<svg
   version="1.1"
   viewBox="0 0 579.15129 528.91258"
   id="svg2"
   width="163.44937mm"
   height="149.27089mm"
   sodipodi:docname="woofridge.SVG"
   inkscape:version="1.2.2 (1:1.2.2+202212051552+b0a8486541)"
   xmlns:inkscape="http://www.inkscape.org/namespaces/inkscape"
   xmlns:sodipodi="http://sodipodi.sourceforge.net/DTD/sodipodi-0.dtd"
   xmlns="http://www.w3.org/2000/svg"
   xmlns:svg="http://www.w3.org/2000/svg">
  <defs
     id="defs4">
    <inkscape:path-effect
       effect="bspline"
       id="path-effect377"
       is_visible="true"
       lpeversion="1"
       weight="33.333333"
       steps="2"
       helper_size="0"
       apply_no_weight="true"
       apply_with_weight="true"
       only_selected="false" />
  </defs>
  <sodipodi:namedview
     id="base"
     pagecolor="#ffffff"
     bordercolor="#666666"
     borderopacity="1.0"
     inkscape:pageopacity="0.0"
     inkscape:pageshadow="2"
     inkscape:document-units="mm"
     inkscape:current-layer="layer1"
     showgrid="false"
     inkscape:showpageshadow="2"
     inkscape:pagecheckerboard="0"
     inkscape:deskcolor="#d1d1d1"
     inkscape:zoom="0.50381356"
     inkscape:cx="79.394448"
     inkscape:cy="392.01009"
     inkscape:window-width="1526"
     inkscape:window-height="836"
     inkscape:window-x="0"
     inkscape:window-y="0"
     inkscape:window-maximized="1" />
  <g
     inkscape:label="Slice 1"
     inkscape:groupmode="layer"
     id="layer1"
     transform="translate(213.25986,229.4234)">
    <path
       style="fill:#000000;stroke-width:0.937499"
       d="M -197.18532,-166.5175 11.68066,99.108472"
       id="path185" />
    <path
       style="fill:#000000;stroke-width:0.937499"
       d="M -140.59435,126.88336 C 14.762349,112.54284 170.11817,98.202408 325.47319,83.862047"
       id="path375"
       inkscape:path-effect="#path-effect377"
       inkscape:original-d="M -140.59435,126.88336 C 14.762441,112.54384 170.11827,98.203441 325.47319,83.862047" />
    <path
       style="fill:#000000;stroke-width:0.937499"
       d="M -136.65935,299.48918 365.89144,289.34746 Z"
       id="path399" />
    <path
       style="fill:#000000;stroke-width:0.937499"
       d="M -172.14195,207.7469 309.34781,187.86232"
       id="path401" />
    <path
       id="rect475"
       style="fill:#000000;stroke-width:0.937499"
       d="M -177.82712 -149.92634 C -197.45702 -149.92634 -213.25986 -134.1235 -213.25986 -114.4936 L -213.25986 2.4228975 C -213.25986 22.052799 -197.45702 37.855634 -177.82712 37.855634 L 190.31555 37.855634 C 209.94545 37.855634 225.74829 22.052799 225.74829 2.4228975 L 225.74829 -114.4936 C 225.74829 -134.1235 209.94545 -149.92634 190.31555 -149.92634 L 145.39795 -149.92634 L 145.39795 -26.606641 C 145.39795 -6.9767397 129.59329 8.8260953 109.96338 8.8260953 L -97.476787 8.8260953 C -117.10669 8.8260953 -132.90952 -6.9767397 -132.90952 -26.606641 L -132.90952 -149.92634 L -177.82712 -149.92634 z " />
  </g>
</svg>
